<svg id="Слой_1" data-name="Слой 1" xmlns="http://www.w3.org/2000/svg" viewBox="0 0 512 512"><defs><style>.cls-1{fill:#fff;}</style></defs><path class="cls-1" d="M8.34,347.88V332.21H113.13c.4-2.84.73-5.25,1.15-8.26H56.39V308.11H111.9c7.26,0,7.26,0,9-8.18H32.37V284.11h5.57c29.67,0,59.33,0,89,.08,3.77,0,6.4-.71,8.67-4.15,3-4.53,6.83-8.48,9.8-12.05h-65V244.33l7.38-.38V132.18l-7.35-.54V108.43H287.55v23.18l-7.39.51V243.89l7.34.42v21.52c-4.49,2.5-8,4.77-11.79,6.5-5.26,2.42-10.63,4.64-16.09,6.54-2.51.87-3.84,1.62-3.8,4.65.18,13.66.16,27.33,0,41,0,2.93,1,4,3.74,4.73,32,8.72,64,9.69,96.23,1.32,3.45-.9,4.56-2.24,4.28-5.77-1-12.29.46-24.11,6.19-35.41,4-7.86,3.12-16.72,1.51-25.06-4.67-24.34-9.84-48.59-14.84-72.87a31.48,31.48,0,0,0-1.22-3.55H320.46V172.17c15.9.33,32.1-2.59,46.76,6.25,8.23-15.39,16-19.67,32.31-18v59.27h-15.1c.79,11.32,10.49,23,20.82,25.81,28.25,7.58,52.86,20.93,70.65,44.93a102.62,102.62,0,0,1,19.14,44c.3,1.78.7,3.55,1.1,5.49l7,.36c2.22,9.37,1.54,11.11-6.05,15.86s-15.34,9.4-22.81,14.39a11.9,11.9,0,0,0-4.18,5.56c-6.75,18.92-19.38,31.42-39.37,35-18.23,3.25-32.61-4.58-43.67-18.47-3.94-4.95-6.1-11.32-9.14-17a50,50,0,0,0-3-4.92c-4.12-5.92-9.83-7-16.84-6.93-34.65.36-69.32.17-104,.17-7,0-13.86,5.33-16.08,12.05-6.12,18.53-18.54,30.73-37.68,34.87s-38.66-5.63-49.25-23.8c-2.56-4.41-3-10.4-6.32-13.92S135.42,369,131.43,366a149.6,149.6,0,0,1-16.17-14.78,9.93,9.93,0,0,0-7.75-3.42c-31.16.11-62.32.07-93.48.07ZM176.41,189.94c-2-3.34-3-6-4.83-7.85Q151.3,161.38,130.71,141c-1.25-1.25-3.18-1.83-4.79-2.72-.64,2.1-2.36,4.63-1.73,6.22,3.1,7.81,5.5,16.43,10.61,22.79,9.42,11.71,23,18.52,36.1,26.24C165,198.26,158.75,203,152.81,208s-11.53,10-16.95,15.41a18.33,18.33,0,0,0-4.05,7.32c-.53,1.63-.32,4.42.75,5.41s3.85,1.06,5.5.47a17.72,17.72,0,0,0,6.7-4.19c5.25-5.54,10.24-11.34,15.17-17.18,5.1-6,10-12.23,15.26-18.66,6.31,7.94,11.89,15.43,18,22.47a115.39,115.39,0,0,0,13.51,13.2c2.68,2.24,6.69,4.9,9.86,1.6s.08-7.22-2.24-9.67c-5.35-5.66-11.19-10.87-17.06-16s-12.25-10.16-19-15.75c5-4.35,9.46-8.33,14.09-12.07a5.05,5.05,0,0,1,4-.81c16.31,5,29.3-2.05,33.4-18.35,3.87-15.39-5.2-25.13-20.73-22.26-14.68,2.71-25.85,16.51-21.66,28.86,2.34,6.9-.59,10.19-4.14,14.31C180.88,184.79,178.59,187.42,176.41,189.94ZM424,392.12a32.12,32.12,0,1,0-32.1-32A32.17,32.17,0,0,0,424,392.12ZM159.9,359.83a32.15,32.15,0,0,0,31.81,32.29c17.62.17,32.34-14.22,32.41-31.7.07-17.8-14.11-32.41-31.58-32.52A32.09,32.09,0,0,0,159.9,359.83Z"/><path class="cls-1" d="M439.88,360.05a15.87,15.87,0,1,1-16-15.91A16.19,16.19,0,0,1,439.88,360.05Z"/><path class="cls-1" d="M207.86,360.12a15.86,15.86,0,1,1-15.86-16A16.12,16.12,0,0,1,207.86,360.12Z"/></svg>