<?xml version="1.0" encoding="utf-8"?>
<!-- Generator: Adobe Illustrator 21.0.1, SVG Export Plug-In . SVG Version: 6.00 Build 0)  -->
<svg version="1.1" id="Слой_1" xmlns="http://www.w3.org/2000/svg" xmlns:xlink="http://www.w3.org/1999/xlink" x="0px" y="0px"
	 viewBox="0 0 292.4 85.8" style="enable-background:new 0 0 292.4 85.8;" xml:space="preserve">
<style type="text/css">
	.st0{fill:#EE3524;}
	.st1{fill:#211E1F;}
</style>
<g>
	<polygon class="st0" points="212.1,19.2 189.6,19.2 189.6,38.2 202.4,38.2 	"/>
	<polygon class="st0" points="219.9,48.7 234.8,19.2 214.9,19.2 197.8,52.6 197.8,52.5 190.2,67.8 237,67.8 237,48.7 	"/>
</g>
<path class="st0" d="M50.4,46.4H22.8c-0.4-1.4-0.6-2.7-0.6-3.9c0-1.6,0.3-3.2,0.9-4.8h9.3c-0.7-3.6-2.7-5.4-6.1-5.4
	c-2.3,0-4.1,1-5.6,2.9c-1.4,1.9-2.1,4.4-2.1,7.4c0,3.2,0.7,5.7,2.1,7.7s3.2,2.9,5.4,2.9c1.8,0,3.6-0.9,5.3-2.7L41.8,63
	c-4.8,3.8-10.2,5.7-16.1,5.7c-7.2,0-13.3-2.4-18.2-7.3C2.5,56.7,0,50.7,0,43.5c0-7.1,2.5-13.1,7.4-18c5-4.9,11-7.4,18.3-7.4
	c7.1,0,13,2.4,17.8,7.2S50.7,36,50.7,43C50.6,43.7,50.6,44.9,50.4,46.4z"/>
<path class="st0" d="M75.2,85.8H56.9V45.2c0-7.4,2-13.5,5.8-18.2c2.2-2.7,5.1-4.8,8.6-6.4s7-2.4,10.6-2.4c7.2,0,13.4,2.4,18.3,7.3
	c5,4.9,7.5,10.9,7.5,17.9c0,6.9-2.5,12.8-7.4,17.8s-10.8,7.5-17.5,7.5c-1.1,0-2.7-0.1-4.9-0.3v-20c1.5,1.2,3,1.8,4.5,1.8
	c1.9,0,3.5-0.7,4.8-2.1c1.3-1.4,2-3.1,2-5s-0.7-3.5-2.1-4.9c-1.4-1.3-3.1-2-5-2c-4.7,0-7,3.2-7,9.7L75.2,85.8L75.2,85.8z"/>
<rect x="115.8" y="19.2" class="st0" width="18.2" height="48.6"/>
<path class="st1" d="M14.8,0c1.9,0,3.6,0.7,5,2c1.4,1.4,2.1,3,2.1,4.8c0,2-0.7,3.6-2,4.9s-3,1.9-5.1,1.9S11,13,9.7,11.7
	s-2-2.9-2-4.9C7.7,5,8.4,3.4,9.8,2C11.2,0.7,12.9,0,14.8,0z"/>
<path class="st1" d="M32.7,0c1.9,0,3.6,0.7,5,2c1.4,1.4,2.1,3,2.1,4.8c0,2-0.7,3.6-2,4.9s-3,1.9-5.1,1.9s-3.8-0.6-5.1-1.9
	c-1.3-1.3-2-2.9-2-4.9c0-1.8,0.7-3.4,2.1-4.8C29.1,0.7,30.8,0,32.7,0z"/>
<path class="st0" d="M270.6,49.6v18.9c-1.5,0.3-2.9,0.4-4.1,0.4c-7.3,0-13.4-2.4-18.3-7.2c-4.9-4.8-7.3-10.8-7.3-18.1
	c0-7.1,2.5-13,7.4-17.9s10.9-7.4,18-7.4c7.9,0,14.1,2.3,18.6,6.9s6.8,10.9,6.8,18.8v23.8h-18.2V45.3c0-2.6-0.6-4.6-1.9-6.1
	s-2.9-2.3-5-2.3c-1.9,0-3.6,0.7-5,2.1c-1.4,1.4-2.1,3.1-2.1,5c0,2,0.6,3.7,1.9,5s2.9,1.9,4.8,1.9C267.7,50.8,269.2,50.4,270.6,49.6z
	"/>
<g>
	<polygon class="st0" points="162.6,19.2 140.1,19.2 140.1,38.2 152.9,38.2 	"/>
	<polygon class="st0" points="170.4,48.7 185.3,19.2 165.4,19.2 148.3,52.5 148.3,52.5 140.7,67.8 187.5,67.8 187.5,48.7 	"/>
</g>
</svg>
