<?xml version="1.0" encoding="utf-8"?>
<!-- Generator: Adobe Illustrator 21.0.1, SVG Export Plug-In . SVG Version: 6.00 Build 0)  -->
<svg version="1.1" id="Слой_1" xmlns="http://www.w3.org/2000/svg" xmlns:xlink="http://www.w3.org/1999/xlink" x="0px" y="0px"
	 viewBox="0 0 50.7 87.3" style="enable-background:new 0 0 50.7 87.3;" xml:space="preserve">
<style type="text/css">
	.st0{fill:#EE3524;}
	.st1{
		fill:#211E1F;
		}
	.first{
		animation: hideshow 2s ease infinite;
	}

	.two{
		animation: hideshow 2s 1s ease infinite;
	}

	@keyframes hideshow {
		50% { transform: translateY(-15px); }
		100% { transform: translateY(0px); }
	}
</style>
<path class="st0" d="M50.4,65H22.8c-0.4-1.4-0.6-2.7-0.6-3.9c0-1.6,0.3-3.2,0.9-4.8h9.3c-0.7-3.6-2.7-5.4-6.1-5.4
	c-2.3,0-4.1,1-5.6,2.9c-1.4,1.9-2.1,4.4-2.1,7.4c0,3.2,0.7,5.7,2.1,7.7s3.2,2.9,5.4,2.9c1.8,0,3.6-0.9,5.3-2.7l10.4,12.5
	c-4.8,3.8-10.2,5.7-16.1,5.7c-7.2,0-13.3-2.4-18.2-7.3C2.5,75.3,0,69.3,0,62.1C0,55,2.5,49,7.4,44.1c5-4.9,11-7.4,18.3-7.4
	c7.1,0,13,2.4,17.8,7.2s7.2,10.7,7.2,17.7C50.6,62.3,50.6,63.5,50.4,65z"/>
<path class="st1 first" d="M14.8,18.6c1.9,0,3.6,0.7,5,2c1.4,1.4,2.1,3,2.1,4.8c0,2-0.7,3.6-2,4.9s-3,1.9-5.1,1.9s-3.8-0.6-5.1-1.9
	c-1.3-1.3-2-2.9-2-4.9c0-1.8,0.7-3.4,2.1-4.8C11.2,19.3,12.9,18.6,14.8,18.6z"/>
<path class="st1 two" d="M32.7,18.6c1.9,0,3.6,0.7,5,2c1.4,1.4,2.1,3,2.1,4.8c0,2-0.7,3.6-2,4.9s-3,1.9-5.1,1.9s-3.8-0.6-5.1-1.9
	c-1.3-1.3-2-2.9-2-4.9c0-1.8,0.7-3.4,2.1-4.8C29.1,19.3,30.8,18.6,32.7,18.6z"/>
</svg>
