<?xml version="1.0" encoding="utf-8"?>
<!-- Generator: Adobe Illustrator 21.1.0, SVG Export Plug-In . SVG Version: 6.00 Build 0)  -->
<svg version="1.1" id="Слой_1" xmlns="http://www.w3.org/2000/svg" xmlns:xlink="http://www.w3.org/1999/xlink" x="0px" y="0px"
	 viewBox="0 0 292.4 85.8" style="enable-background:new 0 0 292.4 85.8;" xml:space="preserve">
<style type="text/css">
	.st0{fill:#EE3524;}
	.st1{fill:#211E1F;}
</style>
<g>
	<polygon class="st0" points="212.1,19.2 189.6,19.2 189.6,38.2 202.4,38.2 	"/>
	<polygon class="st0" points="219.9,48.7 234.8,19.2 214.9,19.2 197.8,52.6 197.8,52.5 190.2,67.8 237,67.8 237,48.7 	"/>
</g>
<path class="st0" d="M50.4,46.4H22.8c-0.4-1.4-0.6-2.7-0.6-3.9c0-1.6,0.3-3.2,0.9-4.8h9.3c-0.7-3.6-2.7-5.4-6.1-5.4
	c-2.3,0-4.1,1-5.6,2.9c-1.4,1.9-2.1,4.4-2.1,7.4c0,3.2,0.7,5.7,2.1,7.7s3.2,2.9,5.4,2.9c1.8,0,3.6-0.9,5.3-2.7l10.4,12.5
	c-4.8,3.8-10.2,5.7-16.1,5.7c-7.2,0-13.3-2.4-18.2-7.3C2.5,56.7,0,50.7,0,43.5c0-7.1,2.5-13.1,7.4-18c5-4.9,11-7.4,18.3-7.4
	c7.1,0,13,2.4,17.8,7.2c4.8,4.8,7.2,10.7,7.2,17.7C50.6,43.7,50.6,44.9,50.4,46.4z"/>
<path class="st0" d="M75.2,85.8H56.9V45.2c0-7.4,2-13.5,5.8-18.2c2.2-2.7,5.1-4.8,8.6-6.4c3.5-1.6,7-2.4,10.6-2.4
	c7.2,0,13.4,2.4,18.3,7.3c5,4.9,7.5,10.9,7.5,17.9c0,6.9-2.5,12.8-7.4,17.8c-4.9,5-10.8,7.5-17.5,7.5c-1.1,0-2.7-0.1-4.9-0.3V48.4
	c1.5,1.2,3,1.8,4.5,1.8c1.9,0,3.5-0.7,4.8-2.1c1.3-1.4,2-3.1,2-5c0-1.9-0.7-3.5-2.1-4.9c-1.4-1.3-3.1-2-5-2c-4.7,0-7,3.2-7,9.7V85.8
	z"/>
<rect x="115.8" y="19.2" class="st0" width="18.2" height="48.6"/>
<path class="st1" d="M14.8,0c1.9,0,3.6,0.7,5,2c1.4,1.4,2.1,3,2.1,4.8c0,2-0.7,3.6-2,4.9c-1.3,1.3-3,1.9-5.1,1.9
	c-2.1,0-3.8-0.6-5.1-1.9c-1.3-1.3-2-2.9-2-4.9C7.7,5,8.4,3.4,9.8,2C11.2,0.7,12.9,0,14.8,0z"/>
<path class="st1" d="M32.7,0c1.9,0,3.6,0.7,5,2c1.4,1.4,2.1,3,2.1,4.8c0,2-0.7,3.6-2,4.9c-1.3,1.3-3,1.9-5.1,1.9
	c-2.1,0-3.8-0.6-5.1-1.9c-1.3-1.3-2-2.9-2-4.9c0-1.8,0.7-3.4,2.1-4.8C29.1,0.7,30.8,0,32.7,0z"/>
<path class="st0" d="M270.6,49.6v18.9c-1.5,0.3-2.9,0.4-4.1,0.4c-7.3,0-13.4-2.4-18.3-7.2c-4.9-4.8-7.3-10.8-7.3-18.1
	c0-7.1,2.5-13,7.4-17.9c4.9-4.9,10.9-7.4,18-7.4c7.9,0,14.1,2.3,18.6,6.9c4.5,4.6,6.8,10.9,6.8,18.8v23.8h-18.2V45.3
	c0-2.6-0.6-4.6-1.9-6.1c-1.3-1.5-2.9-2.3-5-2.3c-1.9,0-3.6,0.7-5,2.1c-1.4,1.4-2.1,3.1-2.1,5c0,2,0.6,3.7,1.9,5
	c1.3,1.3,2.9,1.9,4.8,1.9C267.7,50.8,269.2,50.4,270.6,49.6z"/>
<g>
	<polygon class="st0" points="162.6,19.2 140.1,19.2 140.1,38.2 152.9,38.2 	"/>
	<polygon class="st0" points="170.4,48.7 185.3,19.2 165.4,19.2 148.3,52.5 148.3,52.5 140.7,67.8 187.5,67.8 187.5,48.7 	"/>
</g>
<g>
	<path class="st1" d="M103.7,75.3h1.1v1.5c0.6-0.9,1.4-1.6,2.8-1.6c1.7,0,3.5,1.4,3.5,3.8c0,2.4-1.7,3.8-3.5,3.8
		c-1.3,0-2.2-0.7-2.8-1.5v3.6h-1.1V75.3z M109.9,78.9c0-1.7-1.2-2.8-2.5-2.8c-1.3,0-2.6,1.1-2.6,2.8c0,1.7,1.3,2.8,2.6,2.8
		C108.7,81.7,109.9,80.7,109.9,78.9z"/>
	<path class="st1" d="M112.4,80.4c0-1.6,1.3-2.4,3.1-2.4c0.9,0,1.6,0.1,2.2,0.3v-0.2c0-1.3-0.8-2-2.1-2c-0.9,0-1.5,0.2-2.2,0.5
		l-0.3-0.9c0.8-0.4,1.6-0.6,2.6-0.6c1,0,1.8,0.3,2.3,0.8c0.5,0.5,0.8,1.2,0.8,2.1v4.4h-1.1v-1.1c-0.5,0.6-1.3,1.2-2.6,1.2
		C113.8,82.7,112.4,81.9,112.4,80.4z M117.7,79.9v-0.7c-0.5-0.2-1.2-0.3-2.1-0.3c-1.3,0-2.1,0.6-2.1,1.5c0,0.9,0.8,1.4,1.8,1.4
		C116.7,81.8,117.7,81,117.7,79.9z"/>
	<path class="st1" d="M120.6,78.9c0-2,1.6-3.8,3.7-3.8c1.4,0,2.2,0.6,2.9,1.3l-0.7,0.7c-0.6-0.6-1.2-1.1-2.2-1.1
		c-1.5,0-2.6,1.2-2.6,2.8c0,1.6,1.1,2.8,2.7,2.8c0.9,0,1.6-0.5,2.2-1.1l0.7,0.7c-0.7,0.8-1.6,1.4-3,1.4
		C122.2,82.7,120.6,81,120.6,78.9z"/>
	<path class="st1" d="M128.6,78.9c0-2,1.6-3.8,3.7-3.8c1.4,0,2.2,0.6,2.9,1.3l-0.7,0.7c-0.6-0.6-1.2-1.1-2.2-1.1
		c-1.5,0-2.6,1.2-2.6,2.8c0,1.6,1.1,2.8,2.7,2.8c0.9,0,1.6-0.5,2.2-1.1l0.7,0.7c-0.7,0.8-1.6,1.4-3,1.4
		C130.2,82.7,128.6,81,128.6,78.9z"/>
	<path class="st1" d="M138.8,76.3h-2.6v-1h6.3v1h-2.6v6.3h-1.1V76.3z"/>
	<path class="st1" d="M143.2,80.4c0-1.6,1.3-2.4,3.1-2.4c0.9,0,1.6,0.1,2.2,0.3v-0.2c0-1.3-0.8-2-2.1-2c-0.9,0-1.5,0.2-2.2,0.5
		l-0.3-0.9c0.8-0.4,1.6-0.6,2.6-0.6c1,0,1.8,0.3,2.3,0.8c0.5,0.5,0.8,1.2,0.8,2.1v4.4h-1.1v-1.1c-0.5,0.6-1.3,1.2-2.6,1.2
		C144.6,82.7,143.2,81.9,143.2,80.4z M148.6,79.9v-0.7c-0.5-0.2-1.2-0.3-2.1-0.3c-1.3,0-2.1,0.6-2.1,1.5c0,0.9,0.8,1.4,1.8,1.4
		C147.5,81.8,148.6,81,148.6,79.9z"/>
	<path class="st1" d="M151.9,75.3h3.5c1.4,0,2.4,0.7,2.4,1.8c0,1-0.6,1.4-1.2,1.7c0.9,0.2,1.6,0.8,1.6,1.8c0,1.2-1,2-2.6,2h-3.6
		V75.3z M155.2,78.4c0.9,0,1.5-0.4,1.5-1.2c0-0.6-0.5-1-1.4-1H153v2.2H155.2z M155.4,81.6c1,0,1.7-0.5,1.7-1.2
		c0-0.7-0.6-1.1-1.8-1.1H153v2.3H155.4z"/>
	<path class="st1" d="M160.1,75.3h1.1V81l4.3-5.7h1v7.2h-1.1v-5.7l-4.3,5.7h-1V75.3z"/>
	<path class="st1" d="M168.9,75.3h1l2.7,3.8l2.7-3.8h1v7.2h-1.1V77l-2.7,3.7L170,77v5.5h-1V75.3z"/>
	<path class="st1" d="M183,75.3h3.5c1.4,0,2.4,0.7,2.4,1.8c0,1-0.6,1.4-1.2,1.7c0.9,0.2,1.6,0.8,1.6,1.8c0,1.2-1,2-2.6,2H183V75.3z
		 M186.3,78.4c0.9,0,1.5-0.4,1.5-1.2c0-0.6-0.5-1-1.4-1h-2.3v2.2H186.3z M186.5,81.6c1,0,1.7-0.5,1.7-1.2c0-0.7-0.6-1.1-1.8-1.1
		h-2.3v2.3H186.5z"/>
	<path class="st1" d="M190.8,78.9c0-2,1.6-3.8,3.7-3.8c1.4,0,2.2,0.6,2.9,1.3l-0.7,0.7c-0.6-0.6-1.2-1.1-2.2-1.1
		c-1.5,0-2.6,1.2-2.6,2.8c0,1.6,1.1,2.8,2.7,2.8c0.9,0,1.6-0.5,2.2-1.1l0.7,0.7c-0.7,0.8-1.6,1.4-3,1.4
		C192.4,82.7,190.8,81,190.8,78.9z"/>
	<path class="st1" d="M198.7,78.9c0-2.1,1.5-3.8,3.5-3.8c2.1,0,3.4,1.7,3.4,3.8c0,0.1,0,0.2,0,0.4h-5.7c0.2,1.5,1.3,2.4,2.5,2.4
		c1,0,1.7-0.4,2.3-1l0.7,0.6c-0.7,0.8-1.6,1.4-3,1.4C200.4,82.7,198.7,81.2,198.7,78.9z M204.5,78.5c-0.1-1.3-0.9-2.4-2.3-2.4
		c-1.2,0-2.2,1-2.4,2.4H204.5z"/>
	<path class="st1" d="M213.4,76.3h-2.6v-1h6.3v1h-2.6v6.3h-1.1V76.3z"/>
	<path class="st1" d="M218,78.9c0-2,1.6-3.8,3.8-3.8c2.2,0,3.8,1.7,3.8,3.8c0,2-1.6,3.8-3.8,3.8C219.5,82.7,218,81,218,78.9z
		 M224.4,78.9c0-1.6-1.2-2.8-2.7-2.8c-1.6,0-2.6,1.3-2.6,2.8c0,1.6,1.1,2.8,2.7,2.8C223.3,81.7,224.4,80.5,224.4,78.9z"/>
	<path class="st1" d="M232,79.6c-0.5,0.3-1.6,0.7-2.4,0.7c-1.4,0-2.4-0.7-2.4-2.2v-2.7h1.1v2.6c0,0.9,0.5,1.4,1.5,1.4
		c0.8,0,1.7-0.3,2.3-0.7v-3.3h1.1v7.2H232V79.6z"/>
	<path class="st1" d="M235.5,75.3h1.1v4.2l4-4.2h1.3l-3,3.1l3.1,4.1h-1.3l-2.6-3.3l-1.5,1.6v1.8h-1.1V75.3z"/>
	<path class="st1" d="M243.5,75.3h1.1V81l4.3-5.7h1v7.2h-1.1v-5.7l-4.3,5.7h-1V75.3z"/>
	<path class="st1" d="M256.5,75.3h1.1v3.1h4.2v-3.1h1.1v7.2h-1.1v-3.2h-4.2v3.2h-1.1V75.3z"/>
	<path class="st1" d="M264.7,80.4c0-1.6,1.3-2.4,3.1-2.4c0.9,0,1.6,0.1,2.2,0.3v-0.2c0-1.3-0.8-2-2.1-2c-0.9,0-1.5,0.2-2.2,0.5
		l-0.3-0.9c0.8-0.4,1.6-0.6,2.6-0.6c1,0,1.8,0.3,2.3,0.8c0.5,0.5,0.8,1.2,0.8,2.1v4.4H270v-1.1c-0.5,0.6-1.3,1.2-2.6,1.2
		C266,82.7,264.7,81.9,264.7,80.4z M270,79.9v-0.7c-0.5-0.2-1.2-0.3-2.1-0.3c-1.3,0-2.1,0.6-2.1,1.5c0,0.9,0.8,1.4,1.8,1.4
		C268.9,81.8,270,81,270,79.9z"/>
	<path class="st1" d="M272.3,81.6h0.8c0.6-1.1,1-2.6,1-5v-1.3h5.2v6.3h1.1l-0.2,2.8h-0.9v-1.8h-5.9l-0.2,1.8h-0.9V81.6z M278.1,81.6
		v-5.3h-3v1c0,1.8-0.4,3.4-0.9,4.3H278.1z"/>
	<path class="st1" d="M285.5,78.9c0-2.1,1.5-3.8,3.5-3.8c2.1,0,3.4,1.7,3.4,3.8c0,0.1,0,0.2,0,0.4h-5.7c0.2,1.5,1.3,2.4,2.5,2.4
		c1,0,1.7-0.4,2.3-1l0.7,0.6c-0.7,0.8-1.6,1.4-3,1.4C287.1,82.7,285.5,81.2,285.5,78.9z M291.3,78.5c-0.1-1.3-0.9-2.4-2.3-2.4
		c-1.2,0-2.2,1-2.4,2.4H291.3z M287,72.9h1.3v1.3H287V72.9z M289.5,72.9h1.3v1.3h-1.3V72.9z"/>
</g>
</svg>
