<?xml version="1.0" encoding="utf-8"?>
<!-- Generator: Adobe Illustrator 21.0.1, SVG Export Plug-In . SVG Version: 6.00 Build 0)  -->
<svg version="1.1" id="Слой_1" xmlns="http://www.w3.org/2000/svg" xmlns:xlink="http://www.w3.org/1999/xlink" x="0px" y="0px"
	 viewBox="0 0 50.7 68.7" style="enable-background:new 0 0 50.7 68.7;" xml:space="preserve">
<style type="text/css">
	.st0{fill:#EE3524;}
	.st1{fill:#211E1F;}
</style>
<path class="st0" d="M50.4,46.4H22.8c-0.4-1.4-0.6-2.7-0.6-3.9c0-1.6,0.3-3.2,0.9-4.8h9.3c-0.7-3.6-2.7-5.4-6.1-5.4
	c-2.3,0-4.1,1-5.6,2.9c-1.4,1.9-2.1,4.4-2.1,7.4c0,3.2,0.7,5.7,2.1,7.7s3.2,2.9,5.4,2.9c1.8,0,3.6-0.9,5.3-2.7L41.8,63
	c-4.8,3.8-10.2,5.7-16.1,5.7c-7.2,0-13.3-2.4-18.2-7.3C2.5,56.7,0,50.7,0,43.5c0-7.1,2.5-13.1,7.4-18c5-4.9,11-7.4,18.3-7.4
	c7.1,0,13,2.4,17.8,7.2S50.7,36,50.7,43C50.6,43.7,50.6,44.9,50.4,46.4z"/>
<path class="st1" d="M14.8,0c1.9,0,3.6,0.7,5,2c1.4,1.4,2.1,3,2.1,4.8c0,2-0.7,3.6-2,4.9s-3,1.9-5.1,1.9S11,13,9.7,11.7
	s-2-2.9-2-4.9C7.7,5,8.4,3.4,9.8,2C11.2,0.7,12.9,0,14.8,0z"/>
<path class="st1" d="M32.7,0c1.9,0,3.6,0.7,5,2c1.4,1.4,2.1,3,2.1,4.8c0,2-0.7,3.6-2,4.9s-3,1.9-5.1,1.9s-3.8-0.6-5.1-1.9
	c-1.3-1.3-2-2.9-2-4.9c0-1.8,0.7-3.4,2.1-4.8C29.1,0.7,30.8,0,32.7,0z"/>
</svg>
