<?xml version="1.0" encoding="utf-8"?>
<!-- Generator: Adobe Illustrator 21.0.1, SVG Export Plug-In . SVG Version: 6.00 Build 0)  -->
<svg version="1.1" id="Слой_1" xmlns="http://www.w3.org/2000/svg" xmlns:xlink="http://www.w3.org/1999/xlink" x="0px" y="0px"
	 viewBox="0 0 800 800" style="enable-background:new 0 0 800 800;" xml:space="preserve">
<style type="text/css">
	.st0{fill:#FFFFFF;}
</style>
<g>
	<path class="st0" d="M329.7,569.7c-0.2,28,6.9,51.9,16.3,75.3c8.8,21.8,20.1,42.3,32.9,62c2.8,4.4,5.8,8.3,10.8,10.6
		c5.5,2.5,7.2,8,7.1,13.4c-0.2,7.2-1.9,14-7.9,19.2c-11.9,10.3-23.9,20.2-39.6,24.1c-17,4.3-30.4-2.2-41.1-14.8
		c-13-15.3-20.3-33.6-24.3-53c-4-19.5-5.9-39.3-9.1-59c-5.7-34.6-16.1-67.7-36.8-96.5c-3.5-4.9-9.7-8.9-15.5-10.9
		c-9-3.2-18.7-4.1-28-6.4c-2.2-0.5-4.7-1.8-6-3.6c-18.7-25.4-31.5-53.3-35.8-85c-4.5-33.2,0.7-64.8,13.9-95.3
		c3.6-8.4,8.1-16.3,12-24.6c1.6-3.3,4.2-4.7,7.4-5.9c27.9-10.3,56.1-19.9,83.6-31.3c47.4-19.7,92.2-44.5,134.9-73
		c26.1-17.5,51.6-35.9,74.8-57.1c17.6-16.1,34.6-33.1,51.9-49.5c4.3-4.1,5.1-9.5,6.4-14.8c4.5-18.2,10.3-35.8,22-50.9
		c7.5-9.6,17.3-15.9,29.5-16.5c11.3-0.6,21.4,4,30.6,10.5C640,51.3,654.1,71.1,666.6,92c20.4,34,35.2,70.4,47.5,107.9
		c11.6,35.3,20.7,71.2,27,107.7c4.1,23.7,7,47.6,9.8,71.5c3.1,26.6,4,53.4,2.7,80.2c-1.6,33.3-4.8,66.6-18,97.8
		c-5.4,12.8-12.5,24.6-24.5,32.5c-14.3,9.3-28.6,6.8-42.3-0.8c-12.7-7.1-24.6-15.9-37.4-22.7c-26.9-14.2-55.8-23.6-85.5-29.8
		c-30-6.2-60.3-11.2-90.7-15.9c-14.2-2.2-28.8-2.6-43.2-3.3c-20.6-1-41.2-1.2-61.8-2.2c-4.3-0.2-6.3,1.6-8,4.9
		C333.4,536.2,328.9,553.5,329.7,569.7z M728.7,446.8c-0.9-11.6-1.3-23.2-2.6-34.8c-3.2-27.3-6-54.8-10.6-81.9
		c-6.3-37-15.4-73.4-26.7-109.2c-12.7-40.1-27.2-79.5-49.1-115.7C633,94.2,625.6,83.4,615,75.5c-5.5-4.2-11.4-7.6-18.8-5.5
		c-6.3,1.8-9.8,6.5-12.6,12c-8.5,16-10,33.7-11.2,51.2c-2.3,33.2,0,66.4,5,99.3c5,32.9,11.7,65.6,18.6,98.2
		c7,33.1,17.2,65.2,29,96.9c9.8,26.4,21,52.1,35.8,76.1c7,11.3,14.5,22.3,25.5,30.4c11.5,8.5,23.5,6.3,29.7-6.1
		c3.1-6.2,5.4-12.9,7.1-19.6C727.8,488.1,728.6,467.5,728.7,446.8z M269.3,377.9c0.3,0,0.8,0,1.3-0.1c18-6.3,36.3-12.1,54-19.1
		c33.4-13.2,66.6-26.7,99.6-40.9c36.7-15.8,72.1-34.2,105.2-56.6c4.9-3.3,7.9-6.1,7-13.2c-1.7-13.5-1.6-27.1-2.3-40.7
		c0-0.4-0.5-0.7-0.8-1.3c-5.9,5-11.5,10.3-17.6,14.8c-27.3,20.3-54.1,41.3-82.4,60.2c-23.2,15.5-47.5,29.5-72.4,42
		c-24.6,12.3-50.1,23-76,32.3C272.9,359.6,268,365.6,269.3,377.9z"/>
	<path class="st0" d="M160.6,321.5c-38.5,74-36.3,145.7,11.2,215.9c-5.4,1.7-10.3,3.6-15.4,4.7c-28.6,6-52.7-2.8-73.3-22.6
		c-20.6-19.7-30.7-44.6-34-72.4c-3.6-29.9,2-58.2,17.9-84c13.2-21.5,31.6-36.4,56.4-42.6C132.4,318.2,148.4,318.5,160.6,321.5z"/>
</g>
</svg>
