<?xml version="1.0" standalone="no"?>
<!DOCTYPE svg PUBLIC "-//W3C//DTD SVG 20010904//EN"
 "http://www.w3.org/TR/2001/REC-SVG-20010904/DTD/svg10.dtd">
<svg version="1.0" xmlns="http://www.w3.org/2000/svg"
 width="1104.000000pt" height="1104.000000pt" viewBox="0 0 1104.000000 1104.000000"
 preserveAspectRatio="xMidYMid meet">
<metadata>
Created by potrace 1.11, written by Peter Selinger 2001-2013
</metadata>
<g transform="translate(0.000000,1104.000000) scale(0.100000,-0.100000)"
fill="#000000" stroke="none">
<path d="M3677 11024 c-3 -3 -58 -14 -92 -18 -11 -2 -30 -6 -42 -10 -12 -4
-30 -9 -40 -11 -30 -6 -151 -54 -201 -79 -72 -36 -212 -132 -205 -140 3 -3 0
-6 -8 -6 -23 0 -163 -154 -224 -245 -54 -80 -123 -220 -127 -255 0 -3 -5 -16
-10 -30 -11 -27 -12 -34 -23 -100 -4 -25 -9 -54 -12 -65 -5 -23 -5 -228 0
-265 5 -29 18 -108 22 -130 22 -107 97 -272 168 -372 54 -74 183 -209 227
-234 16 -10 30 -22 30 -26 0 -4 5 -8 12 -8 6 0 19 -6 27 -14 26 -23 151 -83
220 -105 75 -25 183 -47 266 -57 65 -7 297 -7 330 -1 25 6 90 16 130 22 17 2
55 12 85 23 30 11 57 20 60 20 3 0 18 5 33 11 16 6 33 11 38 11 5 0 9 5 9 12
0 6 3 8 6 5 7 -7 69 27 159 87 55 36 183 159 228 217 22 29 122 190 123 198 0
3 8 23 17 45 9 21 17 40 17 42 0 1 5 15 11 31 7 15 13 37 14 49 2 11 8 38 14
60 24 94 34 331 17 409 -23 105 -49 194 -68 235 -12 25 -22 47 -22 50 -5 19
-53 103 -72 125 -13 16 -24 34 -24 41 0 7 -3 14 -7 16 -5 2 -33 32 -63 68 -30
36 -66 75 -80 86 -14 12 -36 32 -50 44 -14 11 -35 30 -47 41 -13 10 -23 16
-23 11 0 -4 -4 -2 -8 4 -6 10 -139 94 -148 94 -2 0 -32 13 -66 28 -134 61
-294 91 -471 89 -70 0 -128 -2 -130 -3z"/>
<path d="M6568 11025 c-2 -2 -26 -7 -53 -10 -211 -27 -452 -147 -619 -309 -57
-55 -156 -178 -156 -193 0 -7 -4 -13 -8 -13 -5 0 -15 -12 -23 -27 -8 -16 -16
-30 -19 -33 -10 -9 -68 -144 -84 -195 -33 -103 -44 -197 -41 -340 2 -77 6
-153 10 -170 5 -27 21 -92 28 -120 7 -25 30 -91 36 -100 3 -5 6 -15 7 -21 2
-15 84 -162 98 -177 6 -7 19 -24 28 -38 50 -78 259 -269 294 -269 8 0 17 -7
20 -15 4 -8 14 -15 24 -15 11 0 21 -4 25 -9 14 -24 235 -94 335 -107 19 -2 49
-7 65 -10 36 -8 264 -8 320 0 22 3 60 8 85 12 25 4 51 7 58 7 6 0 12 4 12 9 0
5 4 7 10 3 14 -9 135 33 235 81 124 60 256 163 326 254 13 18 30 38 37 46 24
26 102 149 102 162 0 6 5 12 10 12 6 0 10 7 10 15 0 8 9 34 19 58 18 39 32 79
37 102 1 6 6 28 12 50 19 70 23 98 27 203 2 56 6 106 9 111 3 4 2 11 -1 15 -4
3 -7 19 -8 34 -6 97 -47 259 -83 327 -9 17 -16 32 -17 35 -1 10 -83 146 -100
165 -5 7 -21 27 -35 45 -28 38 -123 135 -160 165 -53 41 -148 105 -158 105 -6
0 -12 4 -14 8 -7 18 -200 98 -280 116 -16 4 -31 7 -35 8 -67 17 -157 26 -257
26 -68 1 -125 -1 -128 -3z"/>
<path d="M5385 8122 c-1 -1 -39 -5 -83 -7 -129 -7 -252 -18 -342 -31 -14 -2
-43 -6 -64 -8 -51 -7 -104 -15 -130 -21 -12 -3 -34 -7 -51 -10 -16 -3 -41 -8
-55 -11 -14 -2 -35 -6 -47 -9 -13 -3 -25 -6 -28 -6 -2 0 -19 -5 -37 -10 -18
-6 -42 -12 -53 -13 -123 -19 -524 -161 -699 -247 -44 -21 -85 -39 -93 -39 -7
0 -13 -3 -13 -8 0 -4 -15 -14 -32 -21 -97 -43 -470 -274 -545 -338 -12 -10
-31 -25 -43 -33 -56 -39 -263 -213 -344 -290 -148 -140 -282 -284 -382 -409
-10 -13 -30 -38 -44 -55 -67 -81 -132 -169 -142 -191 -6 -14 -15 -25 -20 -25
-4 0 -8 -6 -8 -13 0 -7 -11 -24 -25 -39 -14 -15 -25 -30 -25 -33 0 -3 -20 -36
-45 -74 -25 -38 -45 -73 -45 -79 0 -6 -6 -17 -14 -25 -19 -19 -176 -324 -176
-343 0 -8 -4 -14 -10 -14 -5 0 -10 -6 -10 -13 0 -7 -16 -51 -36 -97 -77 -183
-170 -491 -209 -690 -9 -47 -19 -96 -22 -110 -3 -14 -5 -32 -5 -40 0 -8 -4
-34 -9 -56 -5 -23 -11 -65 -13 -95 -3 -30 -7 -64 -10 -75 -18 -88 -27 -714
-13 -869 14 -138 17 -172 22 -195 2 -14 7 -45 9 -70 9 -80 16 -123 36 -210 6
-25 12 -61 15 -80 5 -51 68 -278 110 -400 19 -58 37 -109 39 -115 1 -5 9 -23
15 -40 7 -16 19 -46 26 -65 7 -19 21 -53 31 -75 10 -22 18 -42 19 -45 1 -8
134 -272 148 -295 7 -10 30 -49 51 -85 62 -104 109 -175 118 -178 4 -2 8 -8 8
-13 0 -10 122 -179 173 -239 16 -19 50 -60 75 -90 64 -75 412 -423 491 -490
35 -30 78 -67 95 -82 87 -74 105 -88 115 -88 6 0 11 -4 11 -8 0 -5 26 -26 58
-48 31 -21 59 -42 62 -45 3 -4 52 -37 110 -74 143 -92 154 -99 160 -100 3 0
33 -17 68 -38 35 -20 65 -37 67 -37 2 0 26 -13 52 -28 26 -16 50 -29 53 -30 3
0 41 -17 85 -38 165 -75 503 -200 595 -219 8 -2 35 -8 60 -15 67 -18 65 -18
195 -44 132 -27 222 -43 275 -50 19 -3 58 -8 85 -12 202 -28 707 -39 915 -21
139 12 194 18 220 23 14 2 44 7 66 10 40 5 59 8 114 19 14 2 37 7 53 10 15 3
37 7 50 10 12 2 34 6 48 9 124 21 447 121 614 189 55 22 105 40 112 40 7 0 13
4 13 9 0 4 5 8 10 8 18 0 261 122 374 187 60 35 110 63 111 63 5 0 139 88 152
99 7 6 15 11 18 11 4 0 93 61 120 83 6 4 42 31 80 60 105 77 101 69 54 124
-23 26 -48 57 -58 68 -26 33 -115 139 -126 151 -5 7 -26 31 -45 55 -19 24 -52
64 -73 89 -58 69 -95 113 -118 140 -11 14 -31 37 -45 52 -13 15 -24 30 -24 33
0 3 -8 13 -17 24 -30 31 -66 74 -113 131 -52 64 -71 86 -100 120 -12 14 -43
51 -68 83 -25 31 -49 57 -53 57 -5 0 -9 5 -9 10 0 6 -10 22 -22 34 -13 13 -33
37 -45 52 -12 16 -33 42 -47 57 -14 16 -40 47 -58 70 -33 41 -84 102 -103 123
-5 6 -22 26 -37 45 -14 19 -36 45 -48 59 -12 14 -38 45 -58 69 -21 24 -42 49
-47 55 -11 12 -93 113 -110 134 -5 7 -17 21 -26 30 -8 9 -33 39 -55 67 -21 27
-46 56 -54 65 -8 9 -28 31 -43 49 l-28 32 -32 -33 c-164 -170 -423 -334 -574
-364 -13 -2 -46 -11 -75 -18 -55 -14 -298 -15 -368 -1 -288 57 -504 208 -688
482 -23 34 -42 66 -42 72 0 5 -4 11 -8 13 -13 5 -106 203 -136 286 -26 73 -63
204 -72 252 -2 14 -8 45 -14 70 -18 90 -29 176 -34 269 -2 32 -6 64 -10 69 -3
6 -2 13 3 16 5 4 6 19 3 34 -11 43 -3 334 12 442 2 14 7 52 11 85 4 33 9 63
12 67 2 4 6 20 8 35 8 53 43 192 53 208 4 5 8 18 9 27 12 79 189 421 225 436
4 2 8 9 8 15 0 15 138 158 210 218 189 157 422 241 665 242 76 0 202 -9 250
-18 99 -18 305 -97 305 -116 0 -5 5 -9 11 -9 25 0 150 -112 213 -190 69 -85
176 -322 193 -425 2 -11 8 -37 14 -59 6 -21 8 -41 5 -44 -4 -3 -340 -6 -748
-6 l-742 -1 -38 -119 c-21 -66 -36 -122 -33 -124 2 -3 0 -13 -6 -24 -12 -22
-13 -27 -36 -158 -3 -19 -7 -44 -9 -55 -22 -120 -21 -466 2 -578 2 -12 7 -38
10 -57 9 -56 32 -160 53 -237 l12 -42 1324 2 c729 1 1325 -2 1325 -6 0 -5 5
-5 11 -2 9 6 260 10 284 5 6 -1 12 -2 15 -1 8 2 454 3 465 1 6 -1 12 -2 15 -1
19 6 170 4 170 -2 0 -5 5 -5 11 -2 9 6 260 10 284 5 6 -1 12 -2 15 -1 16 5
461 2 469 -3 5 -4 12 -2 16 4 4 6 11 8 16 5 5 -4 10 -3 10 2 1 4 3 24 5 43 2
19 6 51 9 70 3 19 7 63 10 98 2 34 7 102 12 150 8 101 8 434 0 537 -7 82 -18
184 -22 205 -1 8 -6 44 -11 80 -8 67 -10 78 -14 83 -1 1 -3 18 -5 37 -2 19 -8
58 -14 85 -6 28 -14 64 -17 80 -18 97 -118 441 -148 508 -7 18 -30 74 -50 125
-43 110 -107 244 -184 385 -61 113 -219 360 -233 365 -5 2 -9 8 -9 13 0 12
-141 196 -195 255 -5 6 -30 35 -55 64 -97 114 -381 390 -475 462 -16 12 -37
29 -45 37 -15 15 -222 168 -252 186 -8 6 -40 26 -69 46 -78 53 -188 119 -198
119 -5 0 -11 4 -13 8 -8 22 -395 200 -559 257 -41 15 -83 30 -94 34 -19 8
-119 38 -153 46 -9 3 -68 18 -131 34 -63 17 -126 32 -140 35 -23 3 -105 18
-166 30 -20 4 -90 15 -135 21 -14 2 -56 7 -95 11 -38 3 -81 8 -95 9 -99 13
-605 26 -615 17z"/>
</g>
</svg>
